<svg id="threejs" viewBox="0 0 76 76" version="1.1" xmlns="http://www.w3.org/2000/svg" xmlns:xlink="http://www.w3.org/1999/xlink" xml:space="preserve" xmlns:serif="http://www.serif.com/" style="fill-rule:evenodd;clip-rule:evenodd;stroke-linejoin:round;stroke-miterlimit:2;"><path d="M18.408,75.097l0.042,0.122l0.055,0.105l0.073,0.098l0.088,0.086l0.013,0.011c0.081,0.066 0.171,0.114 0.266,0.143l0.035,0.011c0.097,0.025 0.199,0.033 0.302,0.021l0.117,-0.023l0.111,-0.039l0.105,-0.056l0.098,-0.073l0.03,-0.028l55.134,-52.922c0.208,-0.2 0.293,-0.494 0.224,-0.774c-0.069,-0.279 -0.282,-0.5 -0.558,-0.58l-73.516,-21.168c-0.276,-0.079 -0.574,-0.005 -0.781,0.194c-0.207,0.2 -0.292,0.494 -0.222,0.773l18.381,74.091l0.003,0.008Zm1.224,-1.745l12.031,-11.548l-15.927,-4.154l3.896,15.702Zm8.374,-28.583l4.119,15.493c0,0 -15.903,-4.148 -15.903,-4.148l11.784,-11.345Zm5.678,15.095l11.377,-10.921l-15.485,-4.529l4.108,15.45Zm-18.609,-4.879l11.8,-11.361l-15.762,-4.609l3.962,15.97Zm14.913,-12.126l15.541,4.545c0,0 -3.671,-15.993 -3.671,-15.993l-11.87,11.448Zm17.099,4.139l11.995,-11.514l-15.669,-4.491l3.674,16.005Zm-35.523,-9.528l15.764,4.611l-3.808,-15.952l-11.956,11.341Zm17.323,4.215l11.874,-11.452l-15.681,-4.495l3.807,15.947Zm-18.444,-5.369l11.96,-11.345l-15.905,-4.559l3.945,15.904Zm33.45,-6.859l15.638,4.482c0,0 -3.905,-15.683 -3.905,-15.683l-11.733,11.201Zm13.296,-11.58l3.904,15.677l11.663,-11.195l-15.567,-4.482Zm-31.655,6.318l15.659,4.488l-4.064,-15.753l-11.595,11.265Zm17.226,4.12l11.743,-11.212l-15.81,-4.552l4.067,15.764Zm-35.789,-9.441l15.892,4.556l-3.896,-15.744l-11.996,11.188Zm17.451,4.159l11.585,-11.255l-15.472,-4.456l3.887,15.711Zm-18.588,-5.298l11.998,-11.191l-15.912,-4.581l3.914,15.772Z"/></svg>