<?xml version="1.0" encoding="UTF-8" standalone="no"?><!DOCTYPE svg PUBLIC "-//W3C//DTD SVG 1.1//EN" "http://www.w3.org/Graphics/SVG/1.1/DTD/svg11.dtd"><svg id="name" viewBox="0 0 605 71" version="1.1" xmlns="http://www.w3.org/2000/svg" xmlns:xlink="http://www.w3.org/1999/xlink" xml:space="preserve" xmlns:serif="http://www.serif.com/" style="fill-rule:evenodd;clip-rule:evenodd;stroke-linejoin:round;stroke-miterlimit:2;"><g><path d="M8.299,36.57l25.157,0c4.558,0 8.25,-3.692 8.25,-8.299l0,-17.668c0,-4.607 -3.692,-8.299 -8.25,-8.299l-25.157,0c-4.607,0 -8.299,3.692 -8.299,8.299l0,17.668c0,4.607 3.692,8.299 8.299,8.299Zm-0,-29.136l25.157,0c1.728,0 3.12,1.441 3.12,3.169l0,17.668c0,1.729 -1.392,3.121 -3.12,3.121l-25.157,0c-1.729,0 -3.121,-1.392 -3.121,-3.121l0,-17.668c0,-1.728 1.392,-3.169 3.121,-3.169Z" style="fill:#fff;fill-rule:nonzero;"/><path d="M48.623,36.57l31.153,0c3.934,0 7.146,-3.212 7.146,-7.148l0,-0.866c0,-3.936 -3.212,-7.148 -7.146,-7.148l-25.158,0c-1.104,0 -1.968,-0.865 -1.968,-1.97l0,-0.866c0,-1.105 0.864,-1.97 1.968,-1.97l31.153,0l0,-5.178l-31.153,0c-3.934,0 -7.146,3.212 -7.146,7.148l0,0.866c0,3.936 3.212,7.148 7.146,7.148l25.158,0c1.104,0 1.968,0.913 1.968,1.97l0,0.866c0,1.105 -0.864,1.97 -1.968,1.97l-31.153,0l-0,5.178Z" style="fill:#fff;fill-rule:nonzero;"/><path d="M132.762,11.424l-7.44,-0l-9.456,9.12c-0.384,0.288 -0.672,0.528 -0.96,0.624l-0.096,0c-0.336,0.192 -0.72,0.24 -1.152,0.24l-15.792,0l0,-21.408l-5.178,0l0,36.57l5.178,0l0,-9.984l15.792,0c0.432,0 0.816,0.096 1.152,0.24c0.432,0.192 0.768,0.384 1.056,0.624l9.456,9.12l7.44,0l-13.056,-12.573l13.056,-12.573Z" style="fill:#fff;fill-rule:nonzero;"/><path d="M143.274,36.57l32.304,0l0,-17.996c0,-3.938 -3.212,-7.15 -7.146,-7.15l-31.153,0l-0,5.178l31.153,0c1.104,0 1.968,0.866 1.968,1.972l0,12.818l-27.126,0c-1.104,0 -1.968,-0.865 -1.968,-1.97l0,-2.402c0,-1.105 0.864,-2.018 1.968,-2.018l24.87,0l-0,-5.13l-24.87,0c-3.934,0 -7.146,3.212 -7.146,7.148l0,2.402c0,3.936 3.212,7.148 7.146,7.148Z" style="fill:#fff;fill-rule:nonzero;"/><path d="M181.344,36.57l5.178,0l0,-18c0,-1.104 0.864,-1.968 1.968,-1.968l18.576,0l0,-5.178l-18.576,0c-3.934,0 -7.146,3.212 -7.146,7.146l0,18Z" style="fill:#fff;fill-rule:nonzero;"/><path d="M233.952,36.57l33.456,0c4.558,0 8.25,-3.692 8.25,-8.299l0,-17.668c0,-4.607 -3.692,-8.299 -8.25,-8.299l-33.456,0l0,34.266Zm33.456,-5.178l-28.278,0l0,-23.958l28.278,0c1.728,0 3.12,1.441 3.12,3.169l0,17.668c0,1.729 -1.392,3.121 -3.12,3.121Z" style="fill:#fff;fill-rule:nonzero;"/><path d="M326.64,36.57l32.304,0c3.934,0 7.146,-3.212 7.146,-7.147l0,-10.852c0,-3.935 -3.212,-7.147 -7.146,-7.147l-24.87,0l0,5.178l24.87,0c1.104,0 1.968,0.864 1.968,1.969l0,10.852c0,1.105 -0.864,1.969 -1.968,1.969l-27.126,0l0,-31.392l-5.178,-0l0,36.57Z" style="fill:#fff;fill-rule:nonzero;"/><path d="M371.856,36.57l5.178,0l0,-18c0,-1.104 0.864,-1.968 1.968,-1.968l18.576,0l0,-5.178l-18.576,0c-3.934,0 -7.146,3.212 -7.146,7.146l0,18Z" style="fill:#fff;fill-rule:nonzero;"/><path d="M410.01,36.57l25.158,0c3.934,0 7.146,-3.212 7.146,-7.147l0,-10.852c0,-3.935 -3.212,-7.147 -7.146,-7.147l-25.158,0c-3.934,0 -7.146,3.212 -7.146,7.147l0,10.852c0,3.935 3.212,7.147 7.146,7.147Zm0,-19.968l25.158,0c1.104,0 1.968,0.864 1.968,1.969l0,10.852c0,1.105 -0.864,1.969 -1.968,1.969l-25.158,0c-1.104,0 -1.968,-0.864 -1.968,-1.969l0,-10.852c0,-1.105 0.864,-1.969 1.968,-1.969Z" style="fill:#fff;fill-rule:nonzero;"/><path d="M480.379,36.57l15.988,0c3.935,0 7.147,-3.212 7.147,-7.146l0,-18l-5.13,-0l0,18c0,1.104 -0.912,1.968 -2.017,1.968l-15.988,0c-1.105,0 -2.017,-0.864 -2.017,-1.968l0,-18l-5.13,-0l0,18c0,1.104 -0.912,1.968 -2.017,1.968l-15.988,0c-1.105,0 -1.969,-0.864 -1.969,-1.968l0,-18l-5.178,-0l0,18c0,3.934 3.212,7.146 7.147,7.146l15.988,0c1.153,0 2.257,-0.288 3.264,-0.767c0.479,-0.24 0.91,-0.527 1.342,-0.863c0.384,0.336 0.815,0.623 1.294,0.863c1.007,0.479 2.111,0.767 3.264,0.767Z" style="fill:#fff;fill-rule:nonzero;"/><path d="M510.431,36.57l31.153,0c3.934,0 7.146,-3.212 7.146,-7.148l0,-0.866c0,-3.936 -3.212,-7.148 -7.146,-7.148l-25.158,0c-1.104,0 -1.968,-0.865 -1.968,-1.97l0,-0.866c0,-1.105 0.864,-1.97 1.968,-1.97l31.153,0l0,-5.178l-31.153,0c-3.934,0 -7.146,3.212 -7.146,7.148l0,0.866c0,3.936 3.212,7.148 7.146,7.148l25.158,0c1.104,0 1.968,0.913 1.968,1.97l0,0.866c0,1.105 -0.864,1.97 -1.968,1.97l-31.153,0l-0,5.178Z" style="fill:#fff;fill-rule:nonzero;"/><path d="M594.57,11.424l-7.44,-0l-9.456,9.12c-0.384,0.288 -0.672,0.528 -0.96,0.624l-0.096,0c-0.336,0.192 -0.72,0.24 -1.152,0.24l-15.792,0l0,-21.408l-5.178,0l0,36.57l5.178,0l0,-9.984l15.792,0c0.432,0 0.816,0.096 1.152,0.24c0.432,0.192 0.768,0.384 1.056,0.624l9.456,9.12l7.44,0l-13.056,-12.573l13.056,-12.573Z" style="fill:#fff;fill-rule:nonzero;"/><path d="M599.376,36.57l5.178,0l0,-25.146l-5.178,-0l0,25.146Zm0,-28.272l5.178,0l0,-5.178l-5.178,0l0,5.178Z" style="fill:#fff;fill-rule:nonzero;"/><g><path d="M129.237,66.188l2.006,0l-0,-11.285l10.952,0c0.669,0 1.209,0.559 1.209,1.228l-0,1.209c-0,0.67 -0.54,1.21 -1.209,1.21l-10.078,-0l-0,2.005l10.078,0c1.766,0 3.196,-1.448 3.196,-3.215l-0,-1.209c-0,-1.785 -1.43,-3.215 -3.196,-3.215l-12.958,0l0,13.272Z" style="fill:#fff;fill-rule:nonzero;"/><path d="M161.791,66.188l1.987,0l-0,-13.272l-1.987,0l-0,5.634l-12.162,-0l0,-5.634l-2.005,0l-0,13.272l2.005,0l0,-5.633l12.162,0l-0,5.633Z" style="fill:#fff;fill-rule:nonzero;"/><path d="M166.011,66.188l2.005,0l0,-11.285l10.953,0c0.669,0 1.208,0.559 1.208,1.228l0,1.209c0,0.67 -0.539,1.21 -1.208,1.21l-10.079,-0l0,2.005l10.079,0c1.766,0 3.195,-1.448 3.195,-3.215l0,-1.209c0,-1.785 -1.429,-3.215 -3.195,-3.215l-12.958,0l-0,13.272Z" style="fill:#fff;fill-rule:nonzero;"/><path d="M192.764,66.188l2.005,0l0,-5.633l13.721,0l-0,-2.005l-13.721,-0l0,-2.419c0,-0.669 0.54,-1.228 1.209,-1.228l12.512,0l-0,-1.987l-12.512,0c-1.784,0 -3.214,1.43 -3.214,3.215l-0,10.057Z" style="fill:#fff;fill-rule:nonzero;"/><path d="M210.723,66.188l2.006,0l-0,-6.971c-0,-0.428 0.334,-0.763 0.762,-0.763l7.195,0l-0,-2.005l-7.195,-0c-1.524,-0 -2.768,1.244 -2.768,2.768l0,6.971Z" style="fill:#fff;fill-rule:nonzero;"/><path d="M225.501,66.188l9.744,0c1.524,0 2.768,-1.244 2.768,-2.768l-0,-4.203c-0,-1.524 -1.244,-2.768 -2.768,-2.768l-9.744,-0c-1.524,-0 -2.768,1.244 -2.768,2.768l0,4.203c0,1.524 1.244,2.768 2.768,2.768Zm0,-7.734l9.744,0c0.428,0 0.762,0.335 0.762,0.763l0,4.203c0,0.428 -0.334,0.763 -0.762,0.763l-9.744,-0c-0.428,-0 -0.762,-0.335 -0.762,-0.763l-0,-4.203c-0,-0.428 0.334,-0.763 0.762,-0.763Z" style="fill:#fff;fill-rule:nonzero;"/><path d="M253.521,66.188l2.005,0l0,-6.971c0,-1.524 -1.244,-2.768 -2.768,-2.768l-12.512,-0l0,9.739l2.006,0l-0,-7.734l10.506,0c0.428,0 0.763,0.335 0.763,0.763l-0,6.971Z" style="fill:#fff;fill-rule:nonzero;"/><path d="M260.527,66.188l4.983,0l-0,-2.005l-4.983,-0c-0.427,-0 -0.762,-0.335 -0.762,-0.763l-0,-4.966l4.852,0l0,-2.005l-4.852,-0l-0,-2.213l-2.006,0l0,9.184c0,1.524 1.245,2.768 2.768,2.768Z" style="fill:#fff;fill-rule:nonzero;"/><rect x="267.463" y="60.316" width="8.143" height="2.006" style="fill:#fff;fill-rule:nonzero;"/><path d="M281.052,66.188l12.512,0l0,-2.005l-12.512,-0c-0.669,-0 -1.208,-0.54 -1.208,-1.209l-0,-2.419l13.72,0l0,-2.005l-13.72,-0l-0,-2.419c-0,-0.669 0.539,-1.228 1.208,-1.228l12.512,0l0,-1.987l-12.512,0c-1.784,0 -3.214,1.43 -3.214,3.215l0,6.843c0,1.785 1.43,3.214 3.214,3.214Z" style="fill:#fff;fill-rule:nonzero;"/><path d="M309.072,66.188l2.005,0l0,-6.971c0,-1.524 -1.244,-2.768 -2.768,-2.768l-12.512,-0l0,9.739l2.006,0l-0,-7.734l10.506,0c0.428,0 0.763,0.335 0.763,0.763l-0,6.971Z" style="fill:#fff;fill-rule:nonzero;"/><path d="M316.078,66.188l12.512,0l0,-14.164l-2.005,0l-0,12.159l-10.507,-0c-0.427,-0 -0.762,-0.335 -0.762,-0.763l0,-4.203c0,-0.428 0.335,-0.763 0.762,-0.763l9.633,0l-0,-2.005l-9.633,-0c-1.523,-0 -2.768,1.244 -2.768,2.768l0,4.203c0,1.524 1.245,2.768 2.768,2.768Z" style="fill:#fff;fill-rule:nonzero;"/><path d="M339.19,66.188l12.958,0c1.765,0 3.195,-1.429 3.195,-3.214l0,-6.843c0,-1.785 -1.43,-3.215 -3.195,-3.215l-12.958,0l-0,13.272Zm12.958,-2.005l-10.953,-0l0,-9.28l10.953,0c0.669,0 1.208,0.558 1.208,1.228l0,6.843c0,0.67 -0.539,1.209 -1.208,1.209Z" style="fill:#fff;fill-rule:nonzero;"/><path d="M360.345,66.188l12.511,0l0,-2.005l-12.511,-0c-0.428,-0 -0.763,-0.335 -0.763,-0.763l0,-4.202c0,-0.429 0.335,-0.764 0.763,-0.764l9.744,0c0.427,0 0.762,0.335 0.762,0.764l-0,1.098l-10.395,-0l0,2.005l12.4,0l0,-3.103c0,-1.525 -1.244,-2.769 -2.767,-2.769l-9.744,-0c-1.524,-0 -2.768,1.244 -2.768,2.769l-0,4.202c-0,1.524 1.244,2.768 2.768,2.768Z" style="fill:#fff;fill-rule:nonzero;"/><path d="M381.521,66.188l1.357,0c0.688,0 1.469,-0.427 1.841,-1.002l5.707,-8.737l-2.379,-0l-5.001,7.622c-0.019,0.056 -0.149,0.112 -0.205,0.112l-1.283,-0c-0.055,-0 -0.186,-0.056 -0.204,-0.112l-5.001,-7.622l-2.38,-0l5.708,8.737c0.371,0.575 1.152,1.002 1.84,1.002Z" style="fill:#fff;fill-rule:nonzero;"/><path d="M394.311,66.188l12.512,0l-0,-2.005l-12.512,-0c-0.428,-0 -0.762,-0.335 -0.762,-0.763l-0,-4.202c-0,-0.429 0.334,-0.764 0.762,-0.764l9.744,0c0.428,0 0.762,0.335 0.762,0.764l0,1.098l-10.394,-0l-0,2.005l12.4,0l-0,-3.103c-0,-1.525 -1.244,-2.769 -2.768,-2.769l-9.744,-0c-1.524,-0 -2.768,1.244 -2.768,2.769l0,4.202c0,1.524 1.244,2.768 2.768,2.768Z" style="fill:#fff;fill-rule:nonzero;"/><rect x="409.056" y="52.024" width="2.006" height="14.164" style="fill:#fff;fill-rule:nonzero;"/><path d="M416.063,66.188l9.744,0c1.524,0 2.768,-1.244 2.768,-2.768l-0,-4.203c-0,-1.524 -1.244,-2.768 -2.768,-2.768l-9.744,-0c-1.524,-0 -2.768,1.244 -2.768,2.768l0,4.203c0,1.524 1.244,2.768 2.768,2.768Zm-0,-7.734l9.744,0c0.428,0 0.762,0.335 0.762,0.763l0,4.203c0,0.428 -0.334,0.763 -0.762,0.763l-9.744,-0c-0.428,-0 -0.762,-0.335 -0.762,-0.763l-0,-4.203c-0,-0.428 0.334,-0.763 0.762,-0.763Z" style="fill:#fff;fill-rule:nonzero;"/><path d="M430.808,70.613l2.006,0l-0,-12.159l10.506,0c0.428,0 0.762,0.335 0.762,0.763l0,4.203c0,0.428 -0.334,0.763 -0.762,0.763l-9.632,-0l-0,2.005l9.632,0c1.524,0 2.768,-1.244 2.768,-2.768l-0,-4.203c-0,-1.524 -1.244,-2.768 -2.768,-2.768l-12.512,-0l0,14.164Z" style="fill:#fff;fill-rule:nonzero;"/><path d="M451.089,66.188l12.512,0l0,-2.005l-12.512,-0c-0.428,-0 -0.762,-0.335 -0.762,-0.763l-0,-4.202c-0,-0.429 0.334,-0.764 0.762,-0.764l9.744,0c0.428,0 0.762,0.335 0.762,0.764l0,1.098l-10.394,-0l-0,2.005l12.4,0l0,-3.103c0,-1.525 -1.244,-2.769 -2.768,-2.769l-9.744,-0c-1.524,-0 -2.768,1.244 -2.768,2.769l0,4.202c0,1.524 1.244,2.768 2.768,2.768Z" style="fill:#fff;fill-rule:nonzero;"/><path d="M465.834,66.188l2.006,0l-0,-6.971c-0,-0.428 0.335,-0.763 0.762,-0.763l7.195,0l0,-2.005l-7.195,-0c-1.523,-0 -2.768,1.244 -2.768,2.768l0,6.971Z" style="fill:#fff;fill-rule:nonzero;"/></g><path d="M320.874,39.609l0,-21.035c0,-3.938 -3.212,-7.15 -7.146,-7.15l-31.153,0l-0,5.178l31.153,0c1.104,0 1.968,0.866 1.968,1.972l0,12.818l-27.126,0c-1.104,0 -1.968,-0.865 -1.968,-1.97l0,-2.402c0,-1.105 0.864,-2.018 1.968,-2.018l24.87,0l-0,-5.13l-24.87,0c-3.934,0 -7.146,3.212 -7.146,7.148l0,2.402c0,3.936 3.212,7.148 7.146,7.148l27.126,0l0,8.217l10.266,-0l-0,-5.178l-5.088,-0Z" style="fill:#fff;fill-rule:nonzero;"/></g></svg>