<svg id="leaflet" viewBox="0 0 70 39" version="1.1" xmlns="http://www.w3.org/2000/svg" xmlns:xlink="http://www.w3.org/1999/xlink" xml:space="preserve" xmlns:serif="http://www.serif.com/" style="fill-rule:evenodd;clip-rule:evenodd;stroke-linejoin:round;stroke-miterlimit:2;"><path d="M52.36,29.726c-0.717,-0.531 -2.102,-1.606 -2.878,-2.523c-1.08,-1.276 -2.505,-4.302 0.302,-11.937c2.808,-7.635 16.743,-15.266 16.743,-15.266c0.669,0.21 3.679,11.678 2.067,21.294c-1.188,7.087 -7.047,11.171 -9.906,11.534c-1.885,0.239 -3.837,-1.042 -4.948,-1.942l0.001,0l-3.929,1.579l-3.267,2.058l-6.005,3.456l-1.25,0.181l-1.191,-0.181l-2.217,-0.395l-12.529,-2.693l-3.509,-0.368l-11.381,0.656l-6.74,2.405l-1.543,-0l-0.18,-0.709l9.101,-3.842l2.163,0l0.206,0.844l12.269,-0.238l1.409,-0.798l1.104,0l-0.754,1.319c0,0 9.924,2.715 10.04,2.715l3.752,0l2.136,-1.696l0.207,0.691l4.546,-2.354c-1.652,-0.383 -3.829,-0.929 -5.946,-6.123c-2.258,-5.539 -0.619,-11.912 -0.619,-11.912c-0,0 4.733,1.295 8.577,4.395c-0.843,4.436 0.244,6.494 1.091,7.495c0.765,0.904 2.111,1.959 2.855,2.514l0.223,-0.159Zm-2.714,1.932l0.476,-0.339l-9.955,-14.794l9.479,15.133Zm3.27,-1.811c0.076,0.05 0.147,0.103 0.214,0.159l0.01,-0.021l-0.007,0.024c0.184,0.154 0.333,0.331 0.448,0.53l12.391,-28.67l-13.056,27.978Z"/></svg>